Patient4_TMGait_0pt6_02_right_01_EMG.mot
version=1
nRows=19
nColumns=33
inDegrees=no
endheader
time	1LAddLong	2LGlutMax	3LGlutMed	4LIliopsoas	5LSemiMemb	6LBicFemLong	7LRecFem	8LVastMed	9LVastLat	10LGasMed	11LTibAnt	12lTibPost	13LPeroneusLong	14LSol	15LExtDigLong	16LFlexDigLong	17RAddLong	18RGlutMax	19RGlutMed	20RIliopsoas	21RSemiMemb	22RBicFemLong	23RRecFem	24RVastMed	25RVastLat	26RGasMed	27RTibAnt	28RTibPost	29RPeroneusLong	30RSol	31RExtDigLong	32RFlexDigLong
0.54	-0.006256	-0.074158	-0.18066	0.021057	-0.007629	-0.18631	-0.015564	0.003815	-0.054169	-0.050507	-0.28656	0.002441	0.043793	-0.049896	-0.29083	0.001373	0.011139	-0.068512	-0.09964	0.031586	0.044098	0.018463	0.098419	-0.018921	-0.047607	-0.004883	-0.046844	-0.000763	-0.095673	0.053864	0.001068	-0.007172
0.541	-0.001373	-0.09613	-0.15228	-0.003357	0.051575	-0.1564	0.008698	-0.011444	0.03952	-0.076294	-0.16312	-0.001526	0.056458	-0.0354	-0.32501	-0.007324	0.012054	-0.10346	0.004425	0.085297	0.045166	0.019073	0.072327	-0.058441	-0.049438	-0.005798	0.14069	-0.006256	-0.037231	0.11047	-0.00061	0.006714
0.542	-0.001831	-0.054932	-0.12573	0.000153	0.062408	-0.001526	0.080414	-0.010986	0.044708	-0.042725	-0.16785	-0.001068	0.024567	-0.14755	-0.17258	-0.014191	0.025024	-0.019379	-0.072021	0.13916	0.045624	0.035248	0.03418	-0.051727	-0.037079	-0.012665	0.096436	0.001221	0.056915	0.14694	-0.002747	-0.011597
0.543	-0.013123	-0.093384	-0.16693	0.028381	0.04776	-0.031586	0.084991	0.009003	0.030518	-0.013885	-0.10941	0.005035	-0.032043	-0.18829	-0.10315	-0.011292	0.013428	-0.048065	-0.2887	0.15381	0.046234	0.014496	-0.029602	-0.037384	-0.032654	0	0.13153	-0.005035	0.36987	0.032349	-0.006866	-0.00412
0.544	-0.006714	-0.048523	-0.05249	0.007324	0.031281	-0.071411	0.09079	0.026703	0.016174	-0.007019	-0.035706	-0.014648	-0.023956	-0.16937	-0.12161	-0.002747	0.019836	-0.017242	0.040436	0.112	0.039825	0.021667	-0.089417	-0.034485	-0.04715	0.000153	0.18585	-0.000305	0.18387	-0.080261	-0.000763	-0.016479
0.545	-0.000153	-0.066986	-0.046692	-0.021362	0.010376	-0.041809	0.071716	0.000153	0.036011	-0.007019	-0.00946	0.006561	0.020294	-0.16464	-0.081482	0.001221	0.06424	-0.007935	0.16632	0.081635	0.032959	0.01297	-0.080719	-0.064545	-0.023041	0.001831	0.009766	0.000458	-0.056	-0.076447	-0.001831	-0.014191
0.546	-0.00061	-0.053864	-0.036621	-0.019226	0.010834	-0.016632	0.094604	-0.018616	-0.067291	0.009003	-0.014496	0.005646	0.009766	-0.16647	0.078583	-0.002899	0.070801	0.00061	0.22278	-0.030823	0.045319	0.032501	-0.011902	-0.084686	-0.038452	-0.000305	-0.003357	0.003815	-0.098114	-0.043488	-0.001068	-0.00885
0.547	0.020905	-0.046082	-0.050354	-0.001221	-0.021667	0.028992	0.086517	-0.006561	-0.055542	-0.001984	-0.002594	0.006104	-0.032501	-0.085449	0.17899	0.002441	0.075378	0.033264	0.32959	-0.050049	0.023804	0.022125	0.02243	-0.10437	-0.031433	-0.000458	0.040283	-0.001831	-0.36316	-0.020905	0.009155	-0.003357
0.548	0.007935	-0.037994	-0.048828	-0.00885	-0.013275	0.046844	0.073547	-0.003052	0.030518	-0.018616	0.010986	0.010986	-0.033569	-0.058289	0.23499	0.004425	0.059509	0.006714	0.29602	0.079346	0.026703	0.03006	0.02533	-0.1149	-0.001831	-0.005798	0.14008	0.001831	-0.10132	-0.007782	0.002136	-0.008392
0.549	0.005798	-0.059357	0.060577	-0.000458	-0.013123	0.011139	0.083771	-0.002136	0.068207	-0.038147	0.007782	0.00351	0.016479	-0.047607	0.18463	0.007629	0.031281	-0.03891	-0.26962	0.25559	0.018158	0.029907	0.080872	-0.12589	-0.030975	-0.00824	0.20813	-0.000153	0.84976	0.031738	-0.000916	0.000916
0.55	-0.000763	-0.064392	-0.006104	0.017395	-0.011292	-0.043335	0.11231	0.002899	0.05188	-0.038147	0.027008	0.00885	0.020752	-0.036011	0.12253	0.000763	0.072327	-0.02533	-0.4808	0.092621	0.010376	0.028534	0.027313	-0.13809	-0.016937	-0.00824	0.058136	0.000763	1.2201	0.034332	-0.00412	-0.001373
0.551	0.004578	-0.04837	-0.099792	0.012512	-0.005798	-0.063477	0.10376	0.006409	-0.00412	-0.022583	0.10971	0.001373	-0.008545	-0.018921	0.075378	0.007782	0.051575	0.032959	-0.29831	-0.069885	0.002289	0.033569	0.033875	-0.10254	-0.02121	-0.008698	0.016327	0.001221	0.39627	-0.034027	-0.002899	-0.007172
0.552	-0.004425	-0.023499	-0.037689	0.000916	-0.007935	0.010071	0.10223	0.00412	-0.032043	-0.019379	0.11063	0.007172	0.011749	-0.037994	-0.023651	0.003967	-0.00412	0.046539	-0.34012	-0.15015	0.018921	0.037537	0.018463	-0.11215	-0.018768	-0.00351	0.10925	0	-0.55206	-0.07309	-0.00351	0
0.553	-0.010223	-0.096588	0.000305	0.005341	-0.036011	0.046539	0.088348	-0.002441	-0.031433	0.004425	-0.022125	-0.000153	0.033569	-0.040436	0.094757	-0.012207	-0.056152	-0.00946	-0.24918	-0.1976	0.015411	0.034485	0.032654	-0.052948	0.003815	-0.009766	0.072937	-0.003052	-0.79651	-0.014038	-0.001678	-0.001068
0.554	-0.013275	-0.080719	-0.066528	0.004883	-0.080261	0.076599	0.0914	0.000153	-0.00824	0.016632	-0.087433	0.00412	-0.011902	-0.034637	0.37033	0.005341	-0.079041	-0.020599	-0.13107	-0.19501	0.008087	0.032196	0.069733	-0.064087	-0.001221	-0.012207	-0.12116	-0.005341	-0.30182	-0.038605	-0.001373	-0.004272
0.555	-0.011902	-0.088196	-0.053864	0.016327	-0.13977	0.064392	0.090027	0.007935	0.002289	0.01297	-0.018616	0.005493	-0.024719	0.012207	0.047455	0.001678	-0.09491	-0.093536	0.38452	-0.16159	0.027161	0.059509	0.067139	-0.028687	-0.012207	-0.007629	-0.22934	-0.000153	-0.14664	-0.057373	-0.005798	-0.006561
0.556	-0.029755	-0.059509	0.004578	-0.003967	-0.16083	0.040741	0.084991	0.010986	0.015411	0.02121	0.077057	-0.001221	-0.02121	0.027466	0.030518	0.005035	-0.10529	-0.003967	0.42923	-0.16129	0.033722	0.072021	0.017395	-0.008698	-0.013275	-0.005798	-0.041504	0.001221	-0.21561	-0.069275	-0.003357	-0.00824
0.557	-0.02121	-0.032959	0.017395	0.002747	-0.079193	0.053101	0.070801	0.01236	0.024261	-0.006104	0.18021	0.000153	-0.004425	0.015869	0.040741	0.002594	-0.089264	-0.030518	0.10284	-0.029907	0.030823	0.047455	0.017548	-0.004425	0.001984	0	-0.11368	-0.000305	-0.14954	-0.028992	-0.002594	-0.012512
0.558	-0.010223	0.002136	0.031128	0.013733	0.000763	0.081177	0.054932	0.004272	0.019531	-0.022888	0.11566	-0.008392	-0.001678	-0.012665	0.42419	-0.006256	-0.064545	0.019684	-0.15579	0.087433	0.027771	0.053253	0.034485	-0.05661	-0.005035	0.00351	-0.1857	-0.007782	-0.037689	-0.038147	-0.003204	-0.014954
